<?xml version="1.0" encoding="utf-8"?>
<!DOCTYPE svg PUBLIC "-//W3C//DTD SVG 1.1//EN" "http://www.w3.org/Graphics/SVG/1.1/DTD/svg11.dtd">
<svg version="1.1" id="Layer_1" xmlns="http://www.w3.org/2000/svg" xmlns:xlink="http://www.w3.org/1999/xlink" x="0px"
  y="0px" width="256px" height="256px" viewBox="0 0 256 256" enable-background="new 0 0 256 256" xml:space="preserve">
  <path fill="#FFFFFF" d="M222.301,179.18L222.301,179.18c-0.137-0.635-15.058-67.566-20.967-95.676l28.059-17.588h-31.886
    c-7.479-30.2-25.449-49.658-46.912-50.801c-0.171-0.014-17.48-1.37-31.692,6.724C111.625,11.183,101.62,6.116,94.493,3.739
    c-7.82-2.613-13.963-2.643-14.026-2.643c-35.74,0-53.859,20.666-53.859,61.417v120.075v0.139v16.389
    c0,9.35,1.466,17.596,4.359,24.51c2.896,6.93,6.756,12.758,11.475,17.332c4.718,4.584,10.087,8.096,15.959,10.432
    c4.114,1.629,8.381,2.707,12.677,3.178l0.508,0.053c0.807,0.092,1.64,0.186,2.48,0.225l2.913,0.061l14.55-0.004
    c4.397-0.49,8.78-1.523,13.025-3.066c6.269-2.275,12.008-5.699,17.051-10.176c2.764-2.451,7.461-8.809,9.1-11.395
    c1.405-2.213,2.466-4.602,3.319-6.639c2.893-6.918,4.361-15.16,4.361-24.51l-0.004-23.236h21.594l-0.1-0.457
    c-0.129-0.559-13.511-60.077-20.109-91.604h39.854c2.871,13.644,8.296,39.722,15.696,75.454h-16.883l0.002,42.293
    c0,4.959-0.773,9.326-2.301,12.98c-1.529,3.654-3.56,6.732-6.049,9.145c-2.489,2.418-5.319,4.27-8.41,5.502
    c-2.789,1.107-5.743,1.711-8.761,1.785l-16.619,0.01l-0.107,0.199c-2.848,5.375-6.428,9.992-10.635,13.725
    c-4.435,3.928-9.439,7.049-14.882,9.275l-1.763,0.719h43.995l0.104-0.008l0.163,0.008c5.784,0,11.596-1.145,17.271-3.408
    c5.675-2.252,10.87-5.65,15.436-10.088c4.566-4.424,8.298-10.072,11.1-16.762c2.798-6.697,4.222-14.672,4.222-23.715l-0.004-21.289
    h21.211L222.301,179.18z M114.882,199.771c0,5.131-0.799,9.648-2.384,13.43c-1.583,3.777-3.688,6.965-6.257,9.457
    c-2.574,2.504-5.502,4.41-8.696,5.686c-3.167,1.258-6.417,1.902-9.656,1.912l-11.197-0.039c-3.171-0.064-6.275-0.691-9.242-1.873
    c-3.202-1.275-6.126-3.182-8.701-5.686c-2.568-2.496-4.675-5.68-6.255-9.457c-1.585-3.785-2.383-8.305-2.383-13.43
    c0-5.283,0-27.066,0-43.354l-0.013-0.131v-72.47h65.56c7.122,34.021,12.052,57.661,15.075,72.243h-15.851V199.771z" />
  <path fill="#8ABE3D" d="M175.895,66.215h-39.889c-0.999-4.734-1.674-7.873-1.948-9.092c-1.238-5.371-2.865-10.68-4.842-15.782
    c8.4-5.749,21.403-4.162,21.548-4.145C160.613,37.754,170.468,49.139,175.895,66.215z" />
  <path fill="#8ABE3D" d="M49.914,66.215v-3.639c0-30.992,10.771-36.95,30.658-37.099c0.058-0.006,5.801-0.393,12.462,3.997
    c11.148,7.344,16.264,22.188,18.591,33.35l0.708,3.391H49.914z" />
</svg>